<mxfile host="65bd71144e" modified="2021-01-04T09:14:03.614Z" agent="5.0 (Macintosh; Intel Mac OS X 10_15_7) AppleWebKit/537.36 (KHTML, like Gecko) Code/1.52.1 Chrome/83.0.4103.122 Electron/9.3.5 Safari/537.36" etag="7tf3d_1rYvhnztK_FRyX" version="13.10.0" type="embed">
    <diagram id="R4O0fdNwvOaNxs6SaKQx" name="第 1 页">
        <mxGraphModel dx="991" dy="635" grid="1" gridSize="10" guides="1" tooltips="1" connect="1" arrows="1" fold="1" page="1" pageScale="1" pageWidth="827" pageHeight="1169" background="#DAD2D8" math="0" shadow="0">
            <root>
                <mxCell id="0"/>
                <mxCell id="1" parent="0"/>
                <mxCell id="2" value="cinder&lt;br&gt;volume" style="shape=umlLifeline;participant=umlEntity;perimeter=lifelinePerimeter;whiteSpace=wrap;html=1;container=1;collapsible=0;recursiveResize=0;verticalAlign=top;spacingTop=36;outlineConnect=0;rounded=0;sketch=0;fillColor=#FAE5C7;strokeColor=#0F8B8D;fontColor=#143642;" parent="1" vertex="1">
                    <mxGeometry x="230" y="40" width="40" height="630" as="geometry"/>
                </mxCell>
                <mxCell id="4" value="cinder&lt;br&gt;driver" style="shape=umlLifeline;participant=umlEntity;perimeter=lifelinePerimeter;whiteSpace=wrap;html=1;container=1;collapsible=0;recursiveResize=0;verticalAlign=top;spacingTop=36;outlineConnect=0;rounded=0;sketch=0;fillColor=#FAE5C7;strokeColor=#0F8B8D;fontColor=#143642;" parent="1" vertex="1">
                    <mxGeometry x="480" y="40" width="40" height="630" as="geometry"/>
                </mxCell>
                <mxCell id="8" value="" style="html=1;points=[];perimeter=orthogonalPerimeter;rounded=0;sketch=0;strokeColor=#0F8B8D;fillColor=#FAE5C7;fontColor=#143642;" vertex="1" parent="4">
                    <mxGeometry x="10" y="149" width="10" height="130" as="geometry"/>
                </mxCell>
                <mxCell id="34" value="" style="html=1;points=[];perimeter=orthogonalPerimeter;rounded=0;sketch=0;strokeColor=#0F8B8D;fillColor=#FAE5C7;fontColor=#143642;" vertex="1" parent="4">
                    <mxGeometry x="10" y="80" width="10" height="50" as="geometry"/>
                </mxCell>
                <mxCell id="5" value="osbrick" style="shape=umlLifeline;participant=umlEntity;perimeter=lifelinePerimeter;whiteSpace=wrap;html=1;container=1;collapsible=0;recursiveResize=0;verticalAlign=top;spacingTop=36;outlineConnect=0;rounded=0;sketch=0;strokeColor=#0F8B8D;fillColor=#FAE5C7;fontColor=#143642;" vertex="1" parent="1">
                    <mxGeometry x="350" y="40" width="40" height="630" as="geometry"/>
                </mxCell>
                <mxCell id="17" value="" style="html=1;points=[];perimeter=orthogonalPerimeter;rounded=0;sketch=0;strokeColor=#0F8B8D;fillColor=#FAE5C7;fontColor=#143642;" vertex="1" parent="5">
                    <mxGeometry x="10" y="319" width="10" height="40" as="geometry"/>
                </mxCell>
                <mxCell id="6" value="ipsan" style="shape=umlLifeline;participant=umlEntity;perimeter=lifelinePerimeter;whiteSpace=wrap;html=1;container=1;collapsible=0;recursiveResize=0;verticalAlign=top;spacingTop=36;outlineConnect=0;rounded=0;sketch=0;fillColor=#FAE5C7;strokeColor=#0F8B8D;fontColor=#143642;" vertex="1" parent="1">
                    <mxGeometry x="620" y="40" width="40" height="630" as="geometry"/>
                </mxCell>
                <mxCell id="11" value="" style="html=1;points=[];perimeter=orthogonalPerimeter;rounded=0;sketch=0;strokeColor=#0F8B8D;fillColor=#FAE5C7;fontColor=#143642;" vertex="1" parent="6">
                    <mxGeometry x="10" y="169" width="10" height="130" as="geometry"/>
                </mxCell>
                <mxCell id="39" value="" style="html=1;points=[];perimeter=orthogonalPerimeter;rounded=0;sketch=0;strokeColor=#0F8B8D;fillColor=#FAE5C7;fontColor=#143642;" vertex="1" parent="6">
                    <mxGeometry x="10" y="89" width="10" height="51" as="geometry"/>
                </mxCell>
                <mxCell id="9" value="initialize_connection" style="html=1;verticalAlign=bottom;startArrow=oval;endArrow=block;startSize=8;strokeColor=#A8201A;fillColor=#FAE5C7;fontColor=#143642;labelBackgroundColor=#DAD2D8;" edge="1" target="8" parent="1">
                    <mxGeometry relative="1" as="geometry">
                        <mxPoint x="249.5" y="199" as="sourcePoint"/>
                        <Array as="points">
                            <mxPoint x="360" y="199"/>
                        </Array>
                    </mxGeometry>
                </mxCell>
                <mxCell id="12" value="create_target" style="html=1;verticalAlign=bottom;startArrow=oval;endArrow=block;startSize=8;strokeColor=#A8201A;fillColor=#FAE5C7;fontColor=#143642;labelBackgroundColor=#DAD2D8;" edge="1" parent="1">
                    <mxGeometry relative="1" as="geometry">
                        <mxPoint x="499.5" y="225" as="sourcePoint"/>
                        <mxPoint x="630" y="224" as="targetPoint"/>
                        <Array as="points"/>
                    </mxGeometry>
                </mxCell>
                <mxCell id="14" value="create_initiator" style="html=1;verticalAlign=bottom;startArrow=oval;endArrow=block;startSize=8;strokeColor=#A8201A;fillColor=#FAE5C7;fontColor=#143642;labelBackgroundColor=#DAD2D8;" edge="1" parent="1">
                    <mxGeometry relative="1" as="geometry">
                        <mxPoint x="500" y="249" as="sourcePoint"/>
                        <mxPoint x="630" y="249" as="targetPoint"/>
                        <Array as="points"/>
                    </mxGeometry>
                </mxCell>
                <mxCell id="15" value="add_initiator_to_target" style="html=1;verticalAlign=bottom;startArrow=oval;endArrow=block;startSize=8;strokeColor=#A8201A;fillColor=#FAE5C7;fontColor=#143642;labelBackgroundColor=#DAD2D8;" edge="1" parent="1">
                    <mxGeometry relative="1" as="geometry">
                        <mxPoint x="500" y="274" as="sourcePoint"/>
                        <mxPoint x="629" y="274" as="targetPoint"/>
                        <Array as="points"/>
                    </mxGeometry>
                </mxCell>
                <mxCell id="16" value="mapping_lun" style="html=1;verticalAlign=bottom;startArrow=oval;endArrow=block;startSize=8;strokeColor=#A8201A;fillColor=#FAE5C7;fontColor=#143642;exitX=0.9;exitY=0.838;exitDx=0;exitDy=0;exitPerimeter=0;entryX=-0.083;entryY=0.687;entryDx=0;entryDy=0;entryPerimeter=0;labelBackgroundColor=#DAD2D8;" edge="1" parent="1" source="8" target="11">
                    <mxGeometry x="0.163" y="-1" relative="1" as="geometry">
                        <mxPoint x="505" y="298" as="sourcePoint"/>
                        <mxPoint x="630" y="300" as="targetPoint"/>
                        <Array as="points"/>
                        <mxPoint as="offset"/>
                    </mxGeometry>
                </mxCell>
                <mxCell id="18" value="get_connector" style="html=1;verticalAlign=bottom;endArrow=block;entryX=0;entryY=0;strokeColor=#A8201A;fillColor=#FAE5C7;fontColor=#143642;labelBackgroundColor=#DAD2D8;" edge="1" target="17" parent="1">
                    <mxGeometry relative="1" as="geometry">
                        <mxPoint x="249.5" y="359" as="sourcePoint"/>
                    </mxGeometry>
                </mxCell>
                <mxCell id="19" value="return connector" style="html=1;verticalAlign=bottom;endArrow=open;dashed=1;endSize=8;exitX=0;exitY=0.95;strokeColor=#A8201A;fillColor=#FAE5C7;fontColor=#143642;labelBackgroundColor=#DAD2D8;" edge="1" source="17" parent="1">
                    <mxGeometry relative="1" as="geometry">
                        <mxPoint x="249.5" y="397" as="targetPoint"/>
                    </mxGeometry>
                </mxCell>
                <mxCell id="20" value="" style="html=1;points=[];perimeter=orthogonalPerimeter;rounded=0;sketch=0;strokeColor=#0F8B8D;fillColor=#FAE5C7;fontColor=#143642;" vertex="1" parent="1">
                    <mxGeometry x="360" y="429" width="10" height="110" as="geometry"/>
                </mxCell>
                <mxCell id="21" value="connect_volume" style="html=1;verticalAlign=bottom;startArrow=oval;endArrow=block;startSize=8;strokeColor=#A8201A;fillColor=#FAE5C7;fontColor=#143642;labelBackgroundColor=#DAD2D8;" edge="1" target="20" parent="1">
                    <mxGeometry relative="1" as="geometry">
                        <mxPoint x="249.5" y="429" as="sourcePoint"/>
                    </mxGeometry>
                </mxCell>
                <mxCell id="28" value="connect_iscsi_portal" style="edgeStyle=orthogonalEdgeStyle;html=1;align=left;spacingLeft=2;endArrow=block;rounded=0;strokeColor=#A8201A;fillColor=#FAE5C7;fontColor=#143642;labelBackgroundColor=#DAD2D8;" edge="1" parent="1">
                    <mxGeometry relative="1" as="geometry">
                        <mxPoint x="370" y="446" as="sourcePoint"/>
                        <Array as="points">
                            <mxPoint x="395" y="446"/>
                            <mxPoint x="395" y="468"/>
                        </Array>
                        <mxPoint x="369.5" y="468" as="targetPoint"/>
                    </mxGeometry>
                </mxCell>
                <mxCell id="29" value="get_device_name" style="edgeStyle=orthogonalEdgeStyle;html=1;align=left;spacingLeft=2;endArrow=block;rounded=0;strokeColor=#A8201A;fillColor=#FAE5C7;fontColor=#143642;labelBackgroundColor=#DAD2D8;" edge="1" parent="1">
                    <mxGeometry relative="1" as="geometry">
                        <mxPoint x="370" y="489" as="sourcePoint"/>
                        <Array as="points">
                            <mxPoint x="395" y="489"/>
                            <mxPoint x="395" y="511"/>
                        </Array>
                        <mxPoint x="369.5" y="511" as="targetPoint"/>
                    </mxGeometry>
                </mxCell>
                <mxCell id="30" value="" style="html=1;points=[];perimeter=orthogonalPerimeter;rounded=0;sketch=0;strokeColor=#0F8B8D;fillColor=#FAE5C7;fontColor=#143642;" vertex="1" parent="1">
                    <mxGeometry x="250" y="579" width="10" height="40" as="geometry"/>
                </mxCell>
                <mxCell id="31" value="fetch_to_raw" style="edgeStyle=orthogonalEdgeStyle;html=1;align=left;spacingLeft=2;endArrow=block;rounded=0;entryX=1;entryY=0;strokeColor=#A8201A;fillColor=#FAE5C7;fontColor=#143642;labelBackgroundColor=#DAD2D8;" edge="1" target="30" parent="1">
                    <mxGeometry relative="1" as="geometry">
                        <mxPoint x="249.5" y="559" as="sourcePoint"/>
                        <Array as="points">
                            <mxPoint x="280" y="559"/>
                            <mxPoint x="280" y="579"/>
                        </Array>
                    </mxGeometry>
                </mxCell>
                <mxCell id="35" value="create_volume" style="html=1;verticalAlign=bottom;startArrow=oval;endArrow=block;startSize=8;strokeColor=#A8201A;fillColor=#FAE5C7;fontColor=#143642;labelBackgroundColor=#DAD2D8;" edge="1" target="34" parent="1" source="2">
                    <mxGeometry relative="1" as="geometry">
                        <mxPoint x="430" y="120" as="sourcePoint"/>
                        <Array as="points">
                            <mxPoint x="380" y="130"/>
                        </Array>
                    </mxGeometry>
                </mxCell>
                <mxCell id="40" value="create_volume" style="html=1;verticalAlign=bottom;startArrow=oval;endArrow=block;startSize=8;strokeColor=#A8201A;fillColor=#FAE5C7;fontColor=#143642;labelBackgroundColor=#DAD2D8;" edge="1" target="39" parent="1" source="34">
                    <mxGeometry relative="1" as="geometry">
                        <mxPoint x="570" y="129" as="sourcePoint"/>
                    </mxGeometry>
                </mxCell>
            </root>
        </mxGraphModel>
    </diagram>
</mxfile>